# xmcd CD database file
# Copyright (C) 1995-1998 Ti Kan
#
# Track frame offsets:
#	150
#	17454
#	31867
#	45749
#	63384
#	78310
#	95874
#	111179
#	129548
#	142570
#	154507
#	164921
#
# Disc length: 2539 seconds
#
# Revision: 2
# Processed by: cddbd v1.4b42PL1 Copyright (c) Steve Scherf et al.
# Submitted via: CDex 1.30Release
#
DISCID=9409e90c
DTITLE=Bill Kirchen - Tied To The Wheel
DYEAR=2001
DGENRE=Country
TTITLE0=Truck Stop At The End Of The World
TTITLE1=Quit Feelin' Sorry For Yourself
TTITLE2=Roll Truck Roll
TTITLE3=Dim Lights, Thick Smoke
TTITLE4=One More Hour Of Blues
TTITLE5=Tryin' To Turn Her Memory Off
TTITLE6=Hillbilly Truck Driving Man
TTITLE7=Tied To the Wheel
TTITLE8=Prison Band
TTITLE9=Poultry In Motion
TTITLE10=How Mountain Girls Can Love
TTITLE11=Just Like Tom Thumb's BLues
EXTD=YEAR: 2001 ID3G:   2
EXTT0=
EXTT1=
EXTT2=
EXTT3=
EXTT4=
EXTT5=
EXTT6=
EXTT7=
EXTT8=
EXTT9=
EXTT10=
EXTT11=
PLAYORDER=
